<svg xmlns="http://www.w3.org/2000/svg" width="44" height="44" fill="none" viewBox="0 0 44 44"><path fill="#04B9EF" d="M30.43 18.617c.626-.605 1.227-.842 1.952-.675.388.088.741.22.962.552.142.202.221.149.363.01.61-.632 1.334-.782 2.129-.43.804.35 1.122 1 1.113 1.866-.018 1.683-.009 3.357-.009 5.04 0 .745-.344 1.087-1.104 1.104-.946.027-.946.027-.946-.885v-4.513c0-.676-.132-.87-.573-.877-.443-.009-.61.228-.61.912v4.12c0 .91-.336 1.243-1.237 1.253-.84 0-.84 0-.84-.825v-4.688c0-.534-.175-.77-.565-.77-.407 0-.618.253-.618.78v4.337c0 .798-.354 1.149-1.157 1.158-.92.017-.92.017-.92-.912 0-2.217.009-4.434-.009-6.652 0-.404.116-.5.495-.473.38.034.77.025 1.149 0 .326-.027.53.034.424.569v-.001Z"/><path fill="#062F6F" fill-rule="evenodd" d="m17.337 22.77-.002-.858.001-.67c.002-.67.004-1.337-.01-1.994-.009-.754-.46-1.193-1.21-1.193h-2.12c-.875 0-.875 0-.813.877.044.631.405.965 1.06.973l.249.002c.168.002.337.004.502-.002.283-.017.459.052.459.377 0 .333-.212.377-.469.377h-.17c-.225-.002-.449-.004-.669.018-.989.086-1.678.806-1.695 1.787a61.115 61.115 0 0 0 0 1.796c.025 1.078.706 1.771 1.793 1.815.5.018.991.01 1.492 0h.01c1.034-.026 1.572-.56 1.59-1.578.006-.578.004-1.153.002-1.727Zm-1.875-.165v.7c0 .038.003.077.006.116a.79.79 0 0 1-.006.235.523.523 0 0 0 .008.204c.028.176.057.355-.3.349-.61-.01-.821-.132-.848-.579-.006-.105-.004-.215-.002-.323l.002-.159c0-.675.302-.912.973-.788.168.033.167.122.167.23v.015Z" clip-rule="evenodd"/><path fill="#093271" fill-rule="evenodd" d="M22.866 21.474c-.017.329-.007.687.003 1.062.017.627.035 1.302-.065 1.97-.132.913-.644 1.403-1.564 1.517-.497.063-.999.055-1.502.046-.265-.004-.53-.008-.795-.002h-.028c-.08.002-.184.005-.184-.096.005-.13-.005-.263-.015-.396-.027-.36-.055-.722.21-1.042.194-.245.458-.35.777-.342h.884c.256 0 .37-.123.37-.385 0-.264-.132-.36-.388-.36-.25.01-.5.01-.751 0-1.087-.052-1.83-.762-1.856-1.832a68.235 68.235 0 0 1-.01-1.972c.003-.439.005-.877.001-1.315 0-.236.08-.307.31-.29.174.013.364-.007.554-.026.375-.039.745-.077.974.132.194.175.151.539.108.906-.02.168-.04.337-.037.488.006.333.004.661.002.992a82.54 82.54 0 0 0-.002.499c0 .376.195.56.574.552.372-.009.521-.22.521-.561l.002-.658a86.93 86.93 0 0 0-.01-1.971c-.01-.264.061-.37.344-.352.416.026.822.026 1.237 0 .274-.018.345.088.345.352-.013.707-.012 1.42-.01 2.216v.868Zm-15.77 1.122V19.66c.008-1.06.565-1.612 1.634-1.621l.53-.002c.353-.002.707-.004 1.06.002.945.017 1.661.684 1.679 1.622.026.964.026 1.927 0 2.892-.018.895-.68 1.542-1.59 1.63-.071.01-.151.01-.222.01-.11 0-.227-.012-.344-.023-.275-.025-.55-.051-.742.066-.206.119-.176.36-.145.61.017.137.034.276.013.398-.08.473-.425.78-.946.825-.473.035-.707.052-.823-.056-.114-.107-.114-.335-.114-.787.01-.877.01-1.752.01-2.629Zm1.873-.56v-.966l-.002-.137c-.001-.142-.003-.287.01-.432.006-.063.001-.13-.004-.197-.017-.234-.034-.46.419-.426.627.044.741.114.741.693l-.001.395c-.002.263-.004.525.001.789 0 .219-.034.411-.264.508-.265.114-.547.097-.821.044-.094-.022-.088-.124-.082-.213l.003-.059Z" clip-rule="evenodd"/><path fill="#04B9EF" d="M24.625 22.658c0-.79-.01-1.579.008-2.368.01-.297-.062-.402-.38-.402-.752.017-.76 0-.752-.755 0-.332-.105-.726.044-.99.143-.254.583-.132.885-.227.46-.141.795-.43 1.087-.782.22-.261.458-.498.803-.568.23-.053.415-.044.372.28-.01.07 0 .149 0 .22.008.306-.088.674.052.893.151.22.548.061.83.079.195.008.257.079.248.264-.008.437-.017.875 0 1.314.01.237-.088.29-.309.29-.83.026-.83.034-.83.85 0 1.63-.01 3.269.009 4.9 0 .324-.08.454-.415.41-.221-.026-.442.01-.664-.017-.644-.078-.99-.473-.997-1.113.009-.763.009-1.516.009-2.278Z"/></svg>