<svg xmlns="http://www.w3.org/2000/svg" width="44" height="44" fill="none" viewBox="0 0 44 44"><path fill="#D8D8D8" d="M0 0h44v44H0z" opacity=".01"/><path fill="#673AB7" d="M22.06.12C9.942.12.12 9.941.12 22.06c0 12.117 9.822 21.939 21.94 21.939 12.116 0 21.94-9.822 21.94-21.94C44 9.942 34.177.12 22.06.12Z"/><path fill="#fff" d="M32.092 16.114v.75c0 .222-.056.387-.166.497-.11.11-.276.167-.497.167h-2.301c-.128 0-.223.034-.288.104-.063.07-.095.174-.095.313v17.851c0 .22-.056.387-.165.496-.11.11-.277.167-.498.167h-1.847c-.221 0-.387-.056-.498-.167-.11-.11-.165-.274-.165-.496v-6.45h-.138c-.28.488-.687.853-1.221 1.098-.534.244-1.196.365-1.988.365h-1.01c-.802 0-1.524-.118-2.166-.353a4.672 4.672 0 0 1-1.688-1.059 4.525 4.525 0 0 1-1.085-1.668c-.24-.643-.362-1.371-.362-2.183v-7.6a.487.487 0 0 0-.079-.297.316.316 0 0 0-.235-.121h-2.022c-.221 0-.386-.06-.497-.175-.11-.116-.166-.29-.166-.523V15.365c0-.209.056-.366.166-.469.11-.105.276-.158.497-.158h10.27a37.127 37.127 0 0 1-2.158-2.456 39.934 39.934 0 0 1-2.011-2.738l-.977-1.448-.974-1.446a1.062 1.062 0 0 1-.14-.522c0-.174.043-.305.13-.392.087-.087.218-.13.392-.13h2.127c.209 0 .39.043.541.13.151.087.274.218.367.392l2.492 4.01 2.493 4.009c.129.198.268.346.42.444.15.098.314.148.488.148H31.43c.221 0 .387.05.497.157.11.104.166.26.166.47v.748Z"/><path fill="#673AB7" d="M25.19 17.526h-5.72c-.128 0-.224.034-.288.104-.063.07-.095.175-.095.314v7.287c0 .907.22 1.586.663 2.039.442.454 1.104.68 1.987.68h.94c.49 0 .915-.062 1.277-.187.363-.125.664-.313.901-.562.239-.25.418-.545.537-.884.12-.341.18-.725.18-1.155V17.945c0-.139-.032-.245-.096-.314-.064-.07-.159-.105-.287-.105Z"/></svg>