<svg xmlns="http://www.w3.org/2000/svg" width="65" height="32" fill="none" viewBox="0 0 65 32"><path fill="#FC2779" fill-rule="evenodd" d="M26.367 21.955c1.584-3.841 2.886-6.205 2.886-6.205l1.805 6.194.033.112c.622 2.139 1.2 4.124 2.098 4.124.09 0 .176.002.26.004.761.016 1.271.027 2.154-1.407.98-1.591 2.76-5.143 2.76-5.143l5.713-1.026S42.93 22.83 42.93 24.3c0 1.47.656 1.862 2.21 1.44 1.268-.343 1.514-2.742 1.691-4.468.04-.389.077-.744.12-1.033.239-1.571.45-2.409.45-2.409l1.778-.362s-1.267 3.927-1.65 5.363l-.015.06c-.38 1.424-.826 3.102.865 3.102 1.56 0 2.103-2.609 2.486-4.453l.11-.523c.396-1.824 1.105-4.082 1.105-4.082l2.943-.556s.002 5.189.127 7.574c.125 2.386 1.404 2.01 1.404 2.01s2.038-.031 2.038-1.404c0-.8-.102-1.635-.229-2.68-.09-.747-.194-1.602-.284-2.629-.214-2.464-.14-3.371-.14-3.371s4.578-.636 5.676-.84c1.099-.205 1.385-.325 1.385-1.67 0-1.346-1.657-1.04-1.657-1.04l-5.557 1.09s-.266-6.011-.266-6.926c0-.914-.39-1.543-1.868-1.543-1.478 0-2.087 1.55-2.087 1.55l-3.518 8.48-2.323.527s1.188-7.6 1.188-9.15c0-1.47-.808-1.46-1.224-1.455h-.084c-.393 0-1.014-.001-2.37 1.382-1.381 1.407-7.34 9.95-7.34 9.95s-3.368 5.04-3.462 5.04c-.069 0-.758-1.616-1.38-3.078-.22-.515-.431-1.01-.605-1.41-.665-1.534-.714-2.001-.714-2.237 0-.235 1.163-1.338 2.955-2.339 1.339-.747 3.721-2.406 5.558-3.685.621-.433 1.18-.822 1.615-1.117 1.72-1.17 1.24-1.592 1.24-1.592s-.398-.996-1.521-.996c-.91 0-2.243 1.057-4.19 2.6-.456.361-.946.75-1.471 1.157-2.771 2.146-4.2 2.848-4.2 2.848s1.911-2.566 2.656-3.67l.01-.015c.746-1.106 1.974-2.926-.01-2.926-1.913 0-3.3 2.299-4.883 4.923l-.197.326c-1.667 2.757-4.304 7.694-4.304 7.694s-3.074 6.449-3.23 7.078c-.154.628.148 1.3 1.162 1.3 1.013 0 1.86-.338 3.444-4.179Zm-17.5-7.746s-2.917 6.77-3.854 9.166c-.938 2.396-1.502 2.789-2.782 2.789-1.279 0-1.305-.828-1.191-1.365.114-.537 4.91-11.03 4.91-11.03s2.84-6.172 3.514-7.216c.674-1.045 1.408-1.364 2.282-.915.768.395.495 3.066.247 5.492-.034.334-.068.664-.098.982-.25 2.63-.137 3.96-.137 3.96l3.075-6.346s1.625-3.587 2.286-4.306c.662-.719 1.658-.591 2.089-.37.43.22.49.445-.022 1.488-.513 1.043-2.895 5.8-2.895 5.8s-.873 1.643-2.635 5.623c-1.76 3.98-2.683 6.834-2.683 6.834s-.46 1.32-1.572 1.32-1.264-.913-1.152-2.182c.111-1.269.619-9.724.619-9.724Zm11.786-7.906s.783-1.41 1.782-1.41c1 0 1.118.714.8 1.432-.316.72-2.022 4.33-2.022 4.33s-.842 1.99.71 1.99c1.316 0 2.869-2.806 3.906-4.68.186-.337.356-.644.505-.9.976-1.672 1.572-2.151 2.284-2.151.712 0 1.791.492.895 2.174-.895 1.68-3.003 4.867-3.003 4.867s-2.599 4.282-4.228 7.534a70.575 70.575 0 0 1-1.172 2.27c-.212.391-.257.474-.796 1.682-.969 2.174-1.857 2.712-2.573 2.712-.717 0-1.442-.53-1.141-1.485.3-.956 2.765-4.881 2.765-4.881s2.294-3.453 2.294-4.158c0-.506-.645-.421-1.315-.333-.263.034-.53.07-.764.07-.827 0-2.004-.16-2.004-1.97 0-1.809 3.077-7.093 3.077-7.093Zm32.045 8.107 2.432-.522-.261-5.47-2.171 5.992Zm-8.287 1.875-4.472.96 5.618-7.866-1.146 6.906Z" clip-rule="evenodd"/></svg>