<svg xmlns="http://www.w3.org/2000/svg" width="44" height="44" fill="none" viewBox="0 0 44 44"><path fill="#696A6A" d="M7.241 25.59h.225l-.209.822c-.03.122-.025.213.018.275.043.061.122.092.238.092.115 0 .21-.03.284-.092a.506.506 0 0 0 .157-.275l.209-.823h.227l-.214.843a.72.72 0 0 1-.248.411.745.745 0 0 1-.466.137c-.193 0-.325-.046-.397-.137-.072-.09-.084-.227-.037-.411l.213-.843ZM8.36 26.944l.357-1.408.679.828a1.465 1.465 0 0 1 .11.164l.238-.939h.21l-.357 1.407-.693-.843a.753.753 0 0 1-.096-.151l-.239.942h-.21ZM9.936 26.943l.344-1.354h.227l-.344 1.354h-.227ZM10.49 26.943l.344-1.354h.78l-.047.187h-.553l-.086.337h.553l-.049.194h-.553l-.161.636h-.228ZM11.521 26.943l.344-1.354h.227l-.343 1.354h-.228ZM12.076 26.943l.343-1.354h.781l-.047.187h-.554l-.086.34h.553l-.049.193h-.553l-.111.437h.553l-.05.197h-.78ZM13.395 26.744h.191c.105 0 .186-.006.242-.02a.468.468 0 0 0 .154-.068.588.588 0 0 0 .16-.164.74.74 0 0 0 .116-.454.295.295 0 0 0-.077-.163.265.265 0 0 0-.125-.069 1.122 1.122 0 0 0-.253-.02h-.165l-.243.958Zm-.278.2.344-1.355h.306c.2 0 .338.01.414.03a.405.405 0 0 1 .314.328c.018.093.012.2-.018.32a.958.958 0 0 1-.144.32.837.837 0 0 1-.242.23.766.766 0 0 1-.234.097c-.083.02-.207.03-.372.03h-.368ZM15.584 26.155h.058a.604.604 0 0 0 .263-.04c.049-.026.082-.073.099-.14.018-.072.008-.123-.03-.153-.037-.03-.115-.044-.236-.044h-.058l-.096.377Zm-.06.18-.154.608h-.213l.343-1.354h.344c.102 0 .176.006.221.016.046.01.083.029.112.053.037.032.06.074.071.128a.388.388 0 0 1-.007.176.53.53 0 0 1-.082.178.447.447 0 0 1-.136.127.45.45 0 0 1-.139.053c-.05.01-.127.015-.229.015h-.131ZM16.522 26.412h.39l-.066-.31a1.164 1.164 0 0 1-.013-.153 1.589 1.589 0 0 1-.09.153l-.221.31Zm.494.531-.07-.348h-.555l-.25.348h-.24l1.035-1.408.32 1.408h-.24ZM17.581 26.943l.157-.62-.284-.734h.238l.177.46a1.183 1.183 0 0 1 .031.108.98.98 0 0 1 .088-.114l.416-.454h.228l-.668.735-.157.62h-.226ZM19.751 26.275a7.497 7.497 0 0 0 .021-.185.84.84 0 0 1-.111.186l-.55.722-.178-.736a.825.825 0 0 1-.026-.172.943.943 0 0 1-.073.186l-.32.667h-.208l.688-1.411.196.855.012.067.018.117a1.896 1.896 0 0 1 .127-.185l.62-.854-.02 1.411h-.21l.014-.668ZM20.13 26.943l.343-1.354h.78l-.047.187h-.553l-.086.34h.553l-.049.193h-.553l-.111.437h.553l-.05.197h-.78ZM21.17 26.944l.358-1.408.679.828a1.515 1.515 0 0 1 .11.164l.238-.939h.21l-.357 1.407-.693-.843a.742.742 0 0 1-.096-.151l-.239.942h-.21ZM23.491 25.776l-.296 1.167h-.227l.296-1.167h-.372l.047-.187h.97l-.048.187h-.37ZM23.727 26.672l.202-.08c.002.06.022.106.06.137.038.032.092.048.164.048a.285.285 0 0 0 .175-.055.253.253 0 0 0 .096-.146c.02-.08-.03-.15-.15-.213a.888.888 0 0 0-.039-.02c-.136-.073-.222-.139-.258-.198a.27.27 0 0 1-.022-.215c.028-.11.09-.2.184-.269a.55.55 0 0 1 .33-.102c.104 0 .185.019.245.057.06.04.093.094.102.166l-.2.09a.204.204 0 0 0-.069-.094.185.185 0 0 0-.108-.03.269.269 0 0 0-.157.046.212.212 0 0 0-.086.125c-.02.08.04.157.18.227l.025.013c.123.062.203.122.24.18.036.06.043.133.02.222a.528.528 0 0 1-.202.305.602.602 0 0 1-.367.114c-.12 0-.21-.027-.273-.08-.063-.053-.093-.129-.092-.228ZM25.407 26.943l.344-1.354h.227l-.343 1.354h-.228ZM25.962 26.944l.357-1.408.679.828a1.453 1.453 0 0 1 .11.164l.238-.939h.21l-.357 1.407-.693-.843a.76.76 0 0 1-.096-.151l-.239.942h-.21ZM28.282 25.776l-.296 1.167h-.228l.296-1.167h-.371l.047-.187h.969l-.047.187h-.37ZM28.53 26.943l.343-1.354h.78l-.046.187h-.554l-.086.34h.553l-.049.193h-.553l-.111.437h.553l-.05.197h-.78ZM29.996 26.166h.041c.12 0 .204-.013.25-.04.047-.027.079-.076.096-.145.019-.074.011-.127-.024-.157-.034-.031-.109-.046-.223-.046h-.041l-.1.388Zm-.058.171-.154.606h-.213l.344-1.354h.317c.093 0 .164.006.212.018a.258.258 0 0 1 .117.058.231.231 0 0 1 .068.127.384.384 0 0 1-.008.17.489.489 0 0 1-.146.255.475.475 0 0 1-.268.11l.326.616h-.257l-.312-.606h-.026ZM30.668 26.943l.343-1.354h.78l-.047.187h-.553l-.086.337h.554l-.05.194h-.553l-.161.636h-.227ZM32.055 26.412h.39l-.065-.31a1.084 1.084 0 0 1-.013-.153 1.753 1.753 0 0 1-.09.153l-.222.31Zm.494.531-.07-.348h-.554l-.251.348h-.239l1.035-1.408.32 1.408h-.24ZM34.27 25.919a.5.5 0 0 0-.174-.12.642.642 0 0 0-.625.103.667.667 0 0 0-.238.369c-.037.146-.02.267.048.362.07.095.175.142.317.142a.754.754 0 0 0 .248-.042c.082-.029.164-.072.248-.13l-.063.25a.903.903 0 0 1-.466.127.738.738 0 0 1-.284-.051.486.486 0 0 1-.3-.38.686.686 0 0 1 .015-.28.89.89 0 0 1 .127-.28.97.97 0 0 1 .217-.23.925.925 0 0 1 .582-.203c.082 0 .157.012.226.036a.61.61 0 0 1 .19.105l-.069.222ZM34.291 26.943l.344-1.354h.78l-.047.187h-.553l-.086.34h.553l-.049.193h-.553l-.111.437h.553l-.05.197h-.78Z"/><path fill="#66686C" d="M30.143 24.41H28.58L30.754 17h1.564l-2.175 7.41ZM29.332 17.234c-.109-.14-.276-.212-.503-.212h-8.597l-.425 1.451h7.82l-.455 1.55h-6.257l.001-.003h-1.564l-1.297 4.42h1.564l.871-2.966h7.033c.22 0 .426-.071.62-.212a.985.985 0 0 0 .383-.525l.871-2.967c.064-.216.042-.395-.065-.536ZM17.144 23.947a.713.713 0 0 1-.692.496H8.386c-.22 0-.384-.07-.491-.212-.107-.141-.13-.316-.069-.525l1.968-6.684h1.565L9.6 22.992h6.26l1.757-5.97h1.565l-2.04 6.925Z"/><path fill="#27803B" d="m35.018 17.014 1.98 3.714-4.162 3.713 2.182-7.427Z"/><path fill="#E9661C" d="m33.63 17.014 1.978 3.714-4.162 3.713 2.184-7.427Z"/></svg>